<?xml version="1.0" encoding="UTF-8"?>
<svg id="Capa_1" xmlns="http://www.w3.org/2000/svg" version="1.1" viewBox="0 0 180 180">
  <!-- Generator: Adobe Illustrator 30.1.0, SVG Export Plug-In . SVG Version: 2.1.1 Build 136)  -->
  <defs>
    <style>
      .st0 {
        fill: #fff;
      }

      .st1 {
        fill: #741012;
      }
    </style>
  </defs>
  <rect class="st0" x="11.5" y="11.5" width="156" height="156" rx="11.72" ry="11.72"/>
  <path class="st1" d="M104.29,107.16c-4.64,0-8.47,3.83-8.47,8.47h5.65c0-1.61,1.21-2.82,2.82-2.82s2.82,1.21,2.82,2.82v8.47h5.65v-8.47c0-4.64-3.83-8.47-8.47-8.47Z"/>
  <path class="st1" d="M92.99,101.51c-4.64,0-8.47,3.83-8.47,8.47h5.65c0-1.61,1.21-2.82,2.82-2.82s2.82,1.21,2.82,2.82v14.13h5.65v-14.13c0-4.64-3.83-8.47-8.47-8.47Z"/>
  <path class="st1" d="M70.39,112.81c-4.64,0-8.47,3.83-8.47,8.47v21.18c0,8.56,6.98,15.54,15.54,15.54h1.42v-5.65h-1.42c-5.53,0-9.89-4.36-9.89-9.89v-21.18c0-1.59,1.23-2.82,2.82-2.82s2.82,1.23,2.82,2.82h5.65c0-4.64-3.83-8.47-8.47-8.47h0Z"/>
  <path class="st1" d="M115.58,112.81c-4.64,0-8.44,3.84-8.44,8.47h5.65c0-1.59,1.22-2.82,2.8-2.82s2.8,1.23,2.8,2.82l.03,21.18c0,5.54-4.34,9.89-9.83,9.89h-1.47v5.65h1.46c8.54,0,15.48-6.99,15.48-15.54l-.03-21.18c0-4.64-3.81-8.47-8.44-8.47h0Z"/>
  <path class="st1" d="M81.69,78.91c-4.64,0-8.47,3.83-8.47,8.47v48.02h5.65v-48.02c0-1.61,1.21-2.82,2.82-2.82s2.82,1.21,2.82,2.82v36.72h5.65v-36.72c0-4.64-3.83-8.47-8.47-8.47Z"/>
  <path class="st1" d="M92.94,56.29c-.73.02-1.43.33-1.94.85l-9.31,9.31-3.65-3.65c-1.08-1.13-2.87-1.16-4-.08s-1.16,2.87-.08,4l.08.08,5.65,5.65c1.11,1.11,2.89,1.11,4,0l11.3-11.3c1.12-1.09,1.14-2.88.06-4-.55-.57-1.31-.88-2.11-.85h0Z"/>
  <path class="st1" d="M138.15,28.02c-1.56.03-2.81,1.31-2.78,2.87h0v11.22c-.02,1.56,1.22,2.84,2.79,2.87,1.56.02,2.84-1.22,2.86-2.79v-11.3c.03-1.56-1.22-2.84-2.78-2.87h-.09Z"/>
  <path class="st1" d="M132.57,33.67c-1.56-.02-2.84,1.23-2.86,2.79s1.23,2.84,2.79,2.86h11.3c1.56.02,2.84-1.23,2.86-2.79s-1.23-2.84-2.79-2.86h-11.3Z"/>
  <path class="st1" d="M30.8,45.07c-1.56.03-2.81,1.31-2.78,2.87h0v11.22c-.02,1.56,1.22,2.84,2.79,2.87,1.56.02,2.84-1.22,2.86-2.79v-11.3c.03-1.56-1.22-2.84-2.78-2.87,0,0-.09,0-.09,0Z"/>
  <path class="st1" d="M25.23,50.72c-1.56-.02-2.84,1.23-2.86,2.79s1.23,2.84,2.79,2.86h11.3c1.56.02,2.84-1.23,2.86-2.79s-1.23-2.84-2.79-2.86h-11.3Z"/>
  <path class="st1" d="M129.71,59.14c0,1.56-1.27,2.82-2.82,2.82h0c-1.56,0-2.82-1.27-2.82-2.82h0c0-1.56,1.27-2.82,2.82-2.82h0c1.56,0,2.82,1.27,2.82,2.82h0Z"/>
  <path class="st1" d="M157.96,25.24c0,1.56-1.27,2.82-2.82,2.82h0c-1.56,0-2.82-1.27-2.82-2.82h0c0-1.56,1.27-2.82,2.82-2.82h0c1.56,0,2.82,1.27,2.82,2.82h0Z"/>
  <path class="st1" d="M118.42,25.24c0,1.56-1.27,2.82-2.82,2.82h0c-1.56,0-2.82-1.27-2.82-2.82h0c0-1.56,1.27-2.82,2.82-2.82h0c1.56,0,2.82,1.27,2.82,2.82h0Z"/>
  <path class="st1" d="M50.62,30.89c0,1.56-1.27,2.82-2.82,2.82h0c-1.56,0-2.82-1.27-2.82-2.82h0c0-1.56,1.27-2.82,2.82-2.82h0c1.56,0,2.82,1.27,2.82,2.82h0Z"/>
  <path class="st1" d="M44.97,81.74c0,1.56-1.27,2.82-2.82,2.82h0c-1.56,0-2.82-1.27-2.82-2.82h0c0-1.56,1.27-2.82,2.82-2.82h0c1.56,0,2.82,1.27,2.82,2.82h0Z"/>
  <path class="st1" d="M152.31,93.03c0,1.56-1.27,2.82-2.82,2.82h0c-1.56,0-2.82-1.27-2.82-2.82h0c0-1.56,1.27-2.82,2.82-2.82h0c1.56,0,2.82,1.27,2.82,2.82h0Z"/>
  <path class="st1" d="M84.52,39.36c-.35,0-.68.07-1.01.19-11.34.42-21.36,7.9-25.38,19.07v.04c-3.65,10.63-1.76,21.23,4.28,30.3.84,1.31,2.59,1.69,3.9.84,1.31-.84,1.69-2.59.84-3.9-.02-.03-.03-.05-.05-.08-5.24-7.88-6.74-16.3-3.64-25.32,3.39-9.39,11.75-15.46,21-15.46h.18c9.23.07,17.55,6.11,20.92,15.47s.83,21.05-6.08,27.64c-1.16,1.03-1.28,2.82-.23,3.99,1.03,1.16,2.82,1.28,3.99.23.05-.05.09-.08.14-.13,8.77-8.35,11.65-22.09,7.51-33.64-4.14-11.5-14.62-19.23-26.38-19.23h.02,0Z"/>
</svg>