<?xml version="1.0" encoding="UTF-8"?>
<svg id="Capa_1" xmlns="http://www.w3.org/2000/svg" version="1.1" viewBox="0 0 180 180">
  <!-- Generator: Adobe Illustrator 30.1.0, SVG Export Plug-In . SVG Version: 2.1.1 Build 136)  -->
  <defs>
    <style>
      .st0 {
        fill: #fff;
      }

      .st1 {
        fill: #741012;
      }
    </style>
  </defs>
  <rect class="st0" x="12" y="12" width="156" height="156" rx="11.72" ry="11.72"/>
  <path class="st1" d="M62.81,150.71c0,1.67,1.31,2.99,2.99,2.99s2.99-1.31,2.99-2.99c0-2.03.24-4.06.72-6.09h40.99c.48,1.91.72,3.94.72,6.09,0,1.67,1.31,2.99,2.99,2.99s2.99-1.31,2.99-2.99c0-13.03-7.29-24.62-18.4-30.35,11.23-5.74,18.4-17.21,18.4-30.35s-7.29-24.62-18.4-30.35c11.23-5.74,18.4-17.21,18.4-30.35,0-1.67-1.31-2.99-2.99-2.99s-2.99,1.31-2.99,2.99c0,2.03-.24,4.06-.72,6.09h-40.99c-.48-1.91-.72-3.94-.72-6.09,0-1.67-1.31-2.99-2.99-2.99s-2.99,1.31-2.99,2.99c0,13.03,7.29,24.62,18.4,30.35-11.11,5.86-18.4,17.45-18.4,30.47s7.29,24.62,18.4,30.35c-11.11,5.74-18.4,17.21-18.4,30.23h0ZM68.79,90.12c0-2.03.24-4.06.72-6.09h40.99c.48,1.91.72,3.94.72,6.09s-.24,4.06-.72,6.09h-40.99c-.36-2.03-.72-4.06-.72-6.09ZM71.66,41.6h36.81c-3.59,7.29-10.16,13.03-18.4,15.06-8.13-2.03-14.82-7.77-18.4-15.06h0ZM90.06,62.87c8.13,2.03,14.82,7.77,18.4,15.06h-36.81c3.59-7.29,10.28-12.91,18.4-15.06h.01ZM71.66,102.19h36.81c-3.59,7.29-10.16,13.03-18.4,15.06-8.13-2.03-14.82-7.65-18.4-15.06h0ZM90.06,123.58c8.13,2.03,14.82,7.77,18.4,15.06h-36.81c3.59-7.29,10.28-13.03,18.4-15.06h.01Z"/>
</svg>