<?xml version="1.0" encoding="UTF-8"?>
<svg id="Capa_1" xmlns="http://www.w3.org/2000/svg" version="1.1" viewBox="0 0 180 180">
  <!-- Generator: Adobe Illustrator 30.1.0, SVG Export Plug-In . SVG Version: 2.1.1 Build 136)  -->
  <defs>
    <style>
      .st0 {
        fill: #fff;
      }

      .st1 {
        fill: #741012;
      }
    </style>
  </defs>
  <rect class="st0" x="11.5" y="11.5" width="156" height="156" rx="11.72" ry="11.72"/>
  <path class="st1" d="M150.32,86.8h-33.27v-8.37c0-9.14-7.44-16.59-16.58-16.59h-22.04c-9.14,0-16.58,7.44-16.58,16.59v8.37H28.69c-1.68,0-3.03,1.36-3.03,3.03s1.35,3.03,3.03,3.03h4.89v54.28c0,4.3,3.49,7.79,7.79,7.79s7.79-3.49,7.79-7.79v-37.61h54.7v42.37c0,1.68,1.36,3.03,3.03,3.03h35.51c1.67,0,3.03-1.35,3.03-3.03v-59.04h4.89c1.67,0,3.03-1.36,3.03-3.03s-1.36-3.03-3.03-3.03h0ZM67.92,78.43c0-5.8,4.71-10.52,10.51-10.52h22.04c5.8,0,10.51,4.72,10.51,10.52v8.37h-3.99v-6.55c0-1.67-1.35-3.03-3.03-3.03s-3.03,1.36-3.03,3.03v6.55h-22.96v-6.55c0-1.67-1.36-3.03-3.03-3.03s-3.03,1.36-3.03,3.03v6.55h-3.99v-8.37h0ZM43.09,147.15c0,.95-.78,1.72-1.72,1.72s-1.72-.77-1.72-1.72v-37.61h3.45v37.61h0ZM139.36,148.87h-29.44v-16.63h29.44v16.63ZM139.36,126.17h-29.44v-16.64h29.44v16.64ZM139.36,103.47H39.64v-10.6h99.72v10.6h0Z"/>
  <path class="st1" d="M120.53,120.02h8.22c1.2,0,2.17-.97,2.17-2.17s-.97-2.17-2.17-2.17h-8.22c-1.2,0-2.17.97-2.17,2.17s.97,2.17,2.17,2.17Z"/>
  <path class="st1" d="M99.19,96.01h-19.46c-1.2,0-2.17.97-2.17,2.17s.97,2.17,2.17,2.17h19.46c1.2,0,2.17-.97,2.17-2.17s-.97-2.17-2.17-2.17Z"/>
  <path class="st1" d="M120.53,142.73h8.22c1.2,0,2.17-.97,2.17-2.17s-.97-2.17-2.17-2.17h-8.22c-1.2,0-2.17.97-2.17,2.17s.97,2.17,2.17,2.17Z"/>
  <path class="st1" d="M134.1,65.55c11.16,0,20.24-9.08,20.24-20.24s-9.08-20.24-20.24-20.24-20.24,9.08-20.24,20.24,9.08,20.24,20.24,20.24ZM134.1,31.13c7.82,0,14.18,6.36,14.18,14.18s-6.36,14.18-14.18,14.18-14.18-6.36-14.18-14.18,6.36-14.18,14.18-14.18Z"/>
  <path class="st1" d="M126.26,47.35l5.03,4.04c.4.32.88.48,1.35.48.59,0,1.18-.24,1.6-.71l7.94-8.79c.81-.88.74-2.25-.16-3.06-.88-.8-2.25-.74-3.06.16l-6.57,7.27-3.43-2.76c-.94-.75-2.3-.6-3.04.33-.75.94-.6,2.3.34,3.04h0Z"/>
  <path class="st1" d="M88.86,60.42c9.16,0,16.6-7.45,16.6-16.61s-7.45-16.61-16.6-16.61-16.6,7.45-16.6,16.61,7.45,16.61,16.6,16.61ZM88.86,33.25c5.82,0,10.54,4.73,10.54,10.55s-4.73,10.55-10.54,10.55-10.54-4.73-10.54-10.55,4.72-10.55,10.54-10.55Z"/>
</svg>