<?xml version="1.0" encoding="UTF-8"?>
<svg id="Capa_1" xmlns="http://www.w3.org/2000/svg" version="1.1" viewBox="0 0 180 180">
  <!-- Generator: Adobe Illustrator 30.1.0, SVG Export Plug-In . SVG Version: 2.1.1 Build 136)  -->
  <defs>
    <style>
      .st0 {
        fill: #fff;
      }

      .st1 {
        fill: #07a8be;
      }
    </style>
  </defs>
  <rect class="st0" x="11.5" y="11.5" width="156" height="156" rx="11.72" ry="11.72"/>
  <path class="st1" d="M83.64,76.85c6.3,0,11.72,4.49,12.9,10.68h9.53c7.46-.06,14.33-4.08,18.05-10.55,3.72-6.48,3.72-14.43,0-20.91s-10.59-10.5-18.05-10.55h-51.43c-.66.02-1.3-.24-1.77-.7-.48-.47-.74-1.1-.74-1.76s.27-1.29.74-1.76c.48-.46,1.11-.72,1.77-.7h51.43c9.26,0,17.82,4.95,22.45,12.97,4.63,8.03,4.63,17.9,0,25.92-4.63,8.03-13.2,12.97-22.45,12.97h-9.53c-1.18,6.19-6.6,10.67-12.9,10.67s-11.72-4.48-12.9-10.67h-9.53c-7.51,0-14.43,4-18.19,10.51-3.75,6.5-3.75,14.51,0,21,3.75,6.5,10.68,10.51,18.19,10.51h45.09l-2.54-2.54c-.5-.45-.78-1.09-.8-1.76-.02-.67.25-1.32.72-1.79.48-.48,1.13-.73,1.8-.72.67.02,1.3.3,1.76.81l6.73,6.73c.47.47.73,1.09.73,1.74s-.27,1.28-.73,1.74l-6.73,6.73h0c-.96.93-2.5.91-3.44-.04s-.96-2.48-.04-3.44l2.54-2.54h-45.09c-9.26,0-17.82-4.94-22.45-12.97-4.63-8.02-4.63-17.9,0-25.92s13.2-12.97,22.45-12.97h9.53c1.18-6.18,6.6-10.67,12.9-10.67h0ZM127.07,104.52c0-1.06.68-2.01,1.7-2.34,1.84-.7,3.69-1.41,5.63-1.97h0c1.9-.61,3.88-.91,5.87-.91,6.27.19,6.88,3.79,11.42,1.11,1.01-.58,2.28-.38,3.06.5.78.86.84,2.16.15,3.09-1.56,1.89-2.49,4.22-2.68,6.66.07,1.95.95,3.78,2.42,5.06.57.55.84,1.34.72,2.12-.12.78-.6,1.46-1.3,1.82-4.62,2.69-6.93,1.73-9.75.57-2.67-1.31-5.77-1.44-8.55-.36-1.17.34-2.45.81-3.76,1.29v2.88c6.66,1.28,11.25,7.4,10.62,14.14-.64,6.74-6.3,11.9-13.08,11.9s-12.44-5.16-13.08-11.9c-.64-6.74,3.96-12.87,10.62-14.14v-19.51h0ZM37.74,29.93c5.31,0,10.1,3.19,12.13,8.1,2.03,4.91.91,10.55-2.84,14.32-3.76,3.75-9.41,4.88-14.32,2.84s-8.1-6.83-8.1-12.14c0-7.25,5.88-13.13,13.13-13.13h0Z"/>
</svg>