<?xml version="1.0" encoding="UTF-8"?>
<svg id="Capa_1" xmlns="http://www.w3.org/2000/svg" version="1.1" viewBox="0 0 92 20">
  <!-- Generator: Adobe Illustrator 30.1.0, SVG Export Plug-In . SVG Version: 2.1.1 Build 136)  -->
  <defs>
    <style>
      .st0, .st1 {
        fill: #fff;
      }

      .st1 {
        fill-rule: evenodd;
      }
    </style>
  </defs>
  <path class="st0" d="M16.71,17.39c2.44,0,3.88-.87,5.18-2.26l-1.77-1.79c-.99.9-1.88,1.48-3.32,1.48-2.17,0-3.66-1.81-3.66-3.97v-.04c0-2.17,1.53-3.94,3.66-3.94,1.26,0,2.26.54,3.23,1.43l1.77-2.04c-1.17-1.15-2.6-1.95-4.98-1.95-3.88,0-6.59,2.94-6.59,6.54v.04c0,3.63,2.76,6.5,6.48,6.5Z"/>
  <path class="st0" d="M37.35,14.96c-1.28,0-2.35-1.07-2.35-2.67v-.04c0-1.6,1.07-2.67,2.35-2.67s2.37,1.07,2.37,2.67v.04c0,1.62-1.08,2.67-2.37,2.67ZM32.29,20h2.74v-4.15c.65.78,1.55,1.44,3.02,1.44,2.29,0,4.41-1.77,4.41-5v-.04c0-3.23-2.15-5-4.41-5-1.43,0-2.35.67-3.02,1.57v-1.39h-2.74v12.57Z"/>
  <path class="st0" d="M43.22,17.21h2.74V7.53h-2.74v9.68ZM43.15,6.47h2.89v-2.44h-2.89v2.44Z"/>
  <path class="st0" d="M50.83,17.27c.92,0,1.59-.22,2.17-.56v-2.2c-.4.22-.85.34-1.35.34-.61,0-.88-.31-.88-.94v-4.13h2.27v-2.35h-2.27v-2.47h-2.74v2.47h-1.16v2.35h1.16v4.59c0,2.24,1.14,2.9,2.82,2.9Z"/>
  <path class="st0" d="M57.76,15.5c-.88,0-1.5-.43-1.5-1.17v-.03c0-.87.72-1.34,1.9-1.34.67,0,1.28.14,1.75.36v.49c0,.99-.87,1.7-2.15,1.7ZM56.93,17.39c1.34,0,2.26-.49,2.92-1.23v1.05h2.65v-5.61c0-1.3-.32-2.37-1.05-3.09-.69-.68-1.77-1.08-3.27-1.08-1.64,0-2.69.31-3.76.78l.69,2.09c.88-.32,1.62-.52,2.67-.52,1.37,0,2.08.63,2.08,1.77v.16c-.69-.24-1.39-.4-2.37-.4-2.29,0-3.9.97-3.9,3.09v.03c0,1.92,1.5,2.96,3.32,2.96Z"/>
  <path class="st0" d="M77.02,15.49c-.88,0-1.5-.43-1.5-1.17v-.03c0-.87.72-1.34,1.9-1.34.67,0,1.28.15,1.75.36v.49c0,.99-.87,1.7-2.15,1.7ZM76.19,17.39c1.34,0,2.26-.49,2.92-1.23v1.05h2.65v-5.61c0-1.3-.32-2.37-1.05-3.09-.69-.69-1.77-1.09-3.27-1.09-1.64,0-2.69.31-3.76.78l.69,2.09c.88-.32,1.62-.52,2.67-.52,1.37,0,2.08.63,2.08,1.77v.16c-.69-.24-1.39-.4-2.37-.4-2.29,0-3.9.97-3.9,3.09v.03c0,1.92,1.5,2.96,3.32,2.96Z"/>
  <path class="st0" d="M26.74,15.5c-.88,0-1.5-.43-1.5-1.17v-.04c0-.87.72-1.33,1.9-1.33.67,0,1.28.14,1.75.36v.49c0,.99-.87,1.7-2.15,1.7ZM25.91,17.39c1.34,0,2.26-.49,2.92-1.23v1.05h2.65v-5.61c0-1.3-.33-2.37-1.05-3.09-.69-.68-1.77-1.08-3.27-1.08-1.64,0-2.69.31-3.76.78l.69,2.09c.88-.32,1.62-.52,2.67-.52,1.37,0,2.08.63,2.08,1.77v.16c-.69-.24-1.39-.4-2.37-.4-2.29,0-3.9.97-3.9,3.09v.03c0,1.92,1.5,2.96,3.32,2.96Z"/>
  <path class="st0" d="M63.5,17.21h2.74v-5.4c0-1.3.67-1.97,1.72-1.97s1.66.67,1.66,1.97v5.4h2.74v-6.26c0-2.22-1.21-3.59-3.29-3.59-1.39,0-2.2.74-2.83,1.55v-1.37h-2.74v9.68Z"/>
  <path class="st1" d="M72.38,7.11V0h9.38v5.59h-7.82l-1.56,1.52ZM73.15,4.16h.65v-1.28c0-.31.15-.47.39-.47s.38.16.38.47v1.28h.65v-1.28c0-.31.15-.47.39-.47s.38.16.38.47v1.28h.65v-1.49c0-.55-.29-.84-.77-.84-.31,0-.55.13-.75.36-.12-.23-.35-.36-.64-.36-.33,0-.52.17-.67.37v-.32h-.65v2.29ZM77.2,4.16h.65v-.7l.23-.24.6.94h.74l-.9-1.39.87-.9h-.78l-.76.83v-1.66h-.65v3.11ZM80.46,4.2c.22,0,.38-.05.51-.13v-.52c-.09.05-.2.08-.32.08-.14,0-.21-.07-.21-.22v-.98h.54v-.55h-.54v-.59h-.65v.59h-.27v.55h.27v1.09c0,.53.27.69.67.69Z"/>
</svg>