<?xml version="1.0" encoding="UTF-8"?>
<svg id="Capa_1" xmlns="http://www.w3.org/2000/svg" version="1.1" viewBox="0 0 70.76 20">
  <!-- Generator: Adobe Illustrator 30.1.0, SVG Export Plug-In . SVG Version: 2.1.1 Build 136)  -->
  <defs>
    <style>
      .st0 {
        fill-rule: evenodd;
      }

      .st0, .st1 {
        fill: #07a8be;
      }
    </style>
  </defs>
  <path class="st1" d="M6.83,17.21c2.38,0,3.78-.85,5.05-2.2l-1.73-1.75c-.97.88-1.83,1.44-3.24,1.44-2.12,0-3.57-1.76-3.57-3.87v-.04c0-2.12,1.49-3.84,3.57-3.84,1.23,0,2.2.53,3.15,1.39l1.73-1.99c-1.14-1.12-2.54-1.9-4.86-1.9C3.15,4.45.51,7.32.51,10.83v.04c0,3.54,2.69,6.34,6.32,6.34Z"/>
  <path class="st1" d="M26.95,14.84c-1.25,0-2.29-1.04-2.29-2.6v-.04c0-1.56,1.04-2.6,2.29-2.6s2.31,1.04,2.31,2.6v.04c0,1.58-1.05,2.6-2.31,2.6ZM22.02,19.75h2.67v-4.05c.63.76,1.51,1.4,2.94,1.4,2.23,0,4.3-1.73,4.3-4.88v-.04c0-3.15-2.1-4.88-4.3-4.88-1.39,0-2.29.65-2.94,1.53v-1.36h-2.67v12.26Z"/>
  <path class="st1" d="M32.67,17.03h2.67V7.59h-2.67s0,9.44,0,9.44ZM32.61,6.56h2.82v-2.38h-2.82v2.38Z"/>
  <path class="st1" d="M40.09,17.09c.9,0,1.55-.21,2.12-.55v-2.14c-.39.21-.83.33-1.32.33-.59,0-.86-.3-.86-.92v-4.03h2.21v-2.29h-2.21v-2.41h-2.67v2.41h-1.13v2.29h1.13v4.48c0,2.18,1.11,2.83,2.75,2.83h-.02Z"/>
  <path class="st1" d="M46.85,15.36c-.86,0-1.46-.42-1.46-1.14v-.03c0-.85.7-1.31,1.85-1.31.65,0,1.25.14,1.71.35v.48c0,.97-.85,1.66-2.1,1.66h0ZM46.04,17.21c1.31,0,2.2-.48,2.85-1.2v1.02h2.58v-5.47c0-1.27-.31-2.31-1.02-3.01-.67-.66-1.73-1.05-3.19-1.05-1.6,0-2.62.3-3.67.76l.67,2.04c.86-.31,1.58-.51,2.6-.51,1.34,0,2.03.61,2.03,1.73v.16c-.67-.23-1.36-.39-2.31-.39-2.23,0-3.8.95-3.8,3.01v.03c0,1.87,1.46,2.89,3.24,2.89h.02Z"/>
  <path class="st1" d="M65.63,15.35c-.86,0-1.46-.42-1.46-1.14v-.03c0-.85.7-1.31,1.85-1.31.65,0,1.25.15,1.71.35v.48c0,.97-.85,1.66-2.1,1.66h0ZM64.82,17.21c1.31,0,2.2-.48,2.85-1.2v1.02h2.58v-5.47c0-1.27-.31-2.31-1.02-3.01-.67-.67-1.73-1.06-3.19-1.06-1.6,0-2.62.3-3.67.76l.67,2.04c.86-.31,1.58-.51,2.6-.51,1.34,0,2.03.61,2.03,1.73v.16c-.67-.23-1.36-.39-2.31-.39-2.23,0-3.8.95-3.8,3.01v.03c0,1.87,1.46,2.89,3.24,2.89h.02Z"/>
  <path class="st1" d="M16.61,15.36c-.86,0-1.46-.42-1.46-1.14v-.04c0-.85.7-1.3,1.85-1.3.65,0,1.25.14,1.71.35v.48c0,.97-.85,1.66-2.1,1.66h0ZM15.8,17.21c1.31,0,2.2-.48,2.85-1.2v1.02h2.58v-5.47c0-1.27-.32-2.31-1.02-3.01-.67-.66-1.73-1.05-3.19-1.05-1.6,0-2.62.3-3.67.76l.67,2.04c.86-.31,1.58-.51,2.6-.51,1.34,0,2.03.61,2.03,1.73v.16c-.67-.23-1.36-.39-2.31-.39-2.23,0-3.8.95-3.8,3.01v.03c0,1.87,1.46,2.89,3.24,2.89h.02Z"/>
  <path class="st1" d="M52.45,17.03h2.67v-5.26c0-1.27.65-1.92,1.68-1.92s1.62.65,1.62,1.92v5.26h2.67v-6.1c0-2.16-1.18-3.5-3.21-3.5-1.36,0-2.14.72-2.76,1.51v-1.34h-2.67v9.44h0Z"/>
  <path class="st0" d="M61.11,7.18V.25h9.15v5.45h-7.62l-1.52,1.48ZM61.86,4.31h.63v-1.25c0-.3.15-.46.38-.46s.37.16.37.46v1.25h.63v-1.25c0-.3.15-.46.38-.46s.37.16.37.46v1.25h.63v-1.45c0-.54-.28-.82-.75-.82-.3,0-.54.13-.73.35-.12-.22-.34-.35-.62-.35-.32,0-.51.17-.65.36v-.31h-.63v2.23h0ZM65.81,4.31h.63v-.68l.22-.23.58.92h.72l-.88-1.36.85-.88h-.76l-.74.81v-1.62h-.63v3.03h0ZM68.98,4.34c.21,0,.37-.05.5-.13v-.51c-.09.05-.19.08-.31.08-.14,0-.2-.07-.2-.21v-.96h.53v-.54h-.53v-.58h-.63v.58h-.26v.54h.26v1.06c0,.52.26.67.65.67h0Z"/>
</svg>