<?xml version="1.0" encoding="UTF-8"?>
<svg id="Capa_1" data-name="Capa 1" xmlns="http://www.w3.org/2000/svg" viewBox="0 0 193.08 53.98">
  <defs>
    <style>
      .cls-1 {
        fill-rule: evenodd;
      }

      .cls-1, .cls-2 {
        fill: #07a8be;
      }
    </style>
  </defs>
  <path class="cls-2" d="M17.49,46.95c6.59,0,10.46-2.35,13.98-6.09l-4.79-4.84c-2.69,2.44-5.07,3.99-8.97,3.99-5.87,0-9.88-4.87-9.88-10.71v-.11c0-5.87,4.12-10.63,9.88-10.63,3.4,0,6.09,1.47,8.72,3.85l4.79-5.51c-3.16-3.1-7.03-5.26-13.45-5.26-10.46,0-17.77,7.94-17.77,17.66v.11c0,9.8,7.45,17.55,17.49,17.55Z"/>
  <path class="cls-2" d="M73.19,40.39c-3.46,0-6.34-2.88-6.34-7.2v-.11c0-4.32,2.88-7.2,6.34-7.2s6.39,2.88,6.39,7.2v.11c0,4.37-2.91,7.2-6.39,7.2ZM59.54,53.98h7.39v-11.21c1.74,2.1,4.18,3.88,8.14,3.88,6.17,0,11.9-4.79,11.9-13.51v-.11c0-8.72-5.81-13.51-11.9-13.51-3.85,0-6.34,1.8-8.14,4.24v-3.76h-7.39v33.99Z"/>
  <path class="cls-2" d="M89.02,46.45h7.39v-26.13h-7.39v26.13ZM88.86,17.47h7.81v-6.59h-7.81v6.59Z"/>
  <path class="cls-2" d="M109.56,46.62c2.49,0,4.29-.58,5.87-1.52v-5.92c-1.08.58-2.3.91-3.65.91-1.63,0-2.38-.83-2.38-2.55v-11.16h6.12v-6.34h-6.12v-6.67h-7.39v6.67h-3.13v6.34h3.13v12.4c0,6.03,3.07,7.83,7.61,7.83h-.06Z"/>
  <path class="cls-2" d="M128.28,41.83c-2.38,0-4.04-1.16-4.04-3.16v-.08c0-2.35,1.94-3.63,5.12-3.63,1.8,0,3.46.39,4.73.97v1.33c0,2.69-2.35,4.6-5.81,4.6h0v-.03ZM126.03,46.95c3.63,0,6.09-1.33,7.89-3.32v2.82h7.14v-15.14c0-3.52-.86-6.39-2.82-8.33-1.85-1.83-4.79-2.91-8.83-2.91-4.43,0-7.25.83-10.16,2.1l1.85,5.65c2.38-.86,4.37-1.41,7.2-1.41,3.71,0,5.62,1.69,5.62,4.79v.44c-1.85-.64-3.76-1.08-6.39-1.08-6.17,0-10.52,2.63-10.52,8.33v.08c0,5.18,4.04,8,8.97,8h.06v-.03Z"/>
  <path class="cls-2" d="M180.26,41.8c-2.38,0-4.04-1.16-4.04-3.16v-.08c0-2.35,1.94-3.63,5.12-3.63,1.8,0,3.46.42,4.73.97v1.33c0,2.69-2.35,4.6-5.81,4.6h0v-.03ZM178.02,46.95c3.63,0,6.09-1.33,7.89-3.32v2.82h7.14v-15.14c0-3.52-.86-6.39-2.82-8.33-1.85-1.85-4.79-2.93-8.83-2.93-4.43,0-7.25.83-10.16,2.1l1.85,5.65c2.38-.86,4.37-1.41,7.2-1.41,3.71,0,5.62,1.69,5.62,4.79v.44c-1.85-.64-3.76-1.08-6.39-1.08-6.17,0-10.52,2.63-10.52,8.33v.08c0,5.18,4.04,8,8.97,8,0,0,.06,0,.06,0Z"/>
  <path class="cls-2" d="M44.57,41.83c-2.38,0-4.04-1.16-4.04-3.16v-.11c0-2.35,1.94-3.6,5.12-3.6,1.8,0,3.46.39,4.73.97v1.33c0,2.69-2.35,4.6-5.81,4.6h0v-.03ZM42.32,46.95c3.63,0,6.09-1.33,7.89-3.32v2.82h7.14v-15.14c0-3.52-.89-6.39-2.82-8.33-1.85-1.83-4.79-2.91-8.83-2.91-4.43,0-7.25.83-10.16,2.1l1.85,5.65c2.38-.86,4.37-1.41,7.2-1.41,3.71,0,5.62,1.69,5.62,4.79v.44c-1.85-.64-3.76-1.08-6.39-1.08-6.17,0-10.52,2.63-10.52,8.33v.08c0,5.18,4.04,8,8.97,8h.06v-.03Z"/>
  <path class="cls-2" d="M143.78,46.45h7.39v-14.56c0-3.52,1.8-5.31,4.65-5.31s4.48,1.8,4.48,5.31v14.56h7.39v-16.89c0-5.98-3.27-9.69-8.89-9.69-3.76,0-5.92,1.99-7.64,4.18v-3.71h-7.39v26.13h0v-.03Z"/>
  <path class="cls-1" d="M167.75,19.18V0h25.33v15.09h-21.09l-4.21,4.1h-.03ZM169.82,11.24h1.74v-3.46c0-.83.42-1.27,1.05-1.27s1.02.44,1.02,1.27v3.46h1.74v-3.46c0-.83.42-1.27,1.05-1.27s1.02.44,1.02,1.27v3.46h1.74v-4.01c0-1.49-.78-2.27-2.08-2.27-.83,0-1.49.36-2.02.97-.33-.61-.94-.97-1.72-.97-.89,0-1.41.47-1.8,1v-.86h-1.74v6.17h0l-.03-.03ZM180.76,11.24h1.74v-1.88l.61-.64,1.61,2.55h1.99l-2.44-3.76,2.35-2.44h-2.1l-2.05,2.24V2.82h-1.74v8.39h0l.03.03ZM189.53,11.32c.58,0,1.02-.14,1.38-.36v-1.41c-.25.14-.53.22-.86.22-.39,0-.55-.19-.55-.58v-2.66h1.47v-1.49h-1.47v-1.61h-1.74v1.61h-.72v1.49h.72v2.93c0,1.44.72,1.85,1.8,1.85h-.03Z"/>
</svg>